<svg data-v-423bf9ae="" xmlns="http://www.w3.org/2000/svg" viewBox="0 0 212.85067094257292 60" class="font"><!----><!----><!----><g data-v-423bf9ae="" id="528fa09c-13f6-4597-b095-7943608eecfa" fill="white" transform="matrix(5.861442414034915,0,0,5.861442414034915,-8.206019423139878,2.136762128347012)"><path d="M7.78-0.32L7.78-0.32L7.78-0.32Q7.46-0.39 7.05-0.35L7.05-0.35L7.05-0.35Q6.64-0.31 6.21-0.20L6.21-0.20L6.21-0.20Q5.78-0.08 5.40 0.06L5.40 0.06L5.40 0.06Q5.03 0.21 4.79 0.34L4.79 0.34L4.79 0.34Q4.16 0.67 3.62 1.21L3.62 1.21L3.62 1.21Q3.08 1.75 2.67 2.39L2.67 2.39L2.67 2.39Q2.25 3.04 1.97 3.72L1.97 3.72L1.97 3.72Q1.69 4.40 1.58 5.01L1.58 5.01L1.58 5.01Q1.53 5.31 1.48 5.68L1.48 5.68L1.48 5.68Q1.43 6.05 1.41 6.43L1.41 6.43L1.41 6.43Q1.39 6.82 1.41 7.17L1.41 7.17L1.41 7.17Q1.44 7.52 1.55 7.77L1.55 7.77L1.57 7.80L1.57 7.80Q1.76 8.26 1.96 8.58L1.96 8.58L1.96 8.58Q2.16 8.90 2.58 9.20L2.58 9.20L2.58 9.20Q3.02 9.51 3.55 9.65L3.55 9.65L3.55 9.65Q4.07 9.79 4.66 9.79L4.66 9.79L4.66 9.79Q5.71 9.79 6.62 9.29L6.62 9.29L6.62 9.29Q7.53 8.79 8.24 8.00L8.24 8.00L8.24 8.00Q8.95 7.21 9.43 6.25L9.43 6.25L9.43 6.25Q9.91 5.29 10.11 4.37L10.11 4.37L10.11 4.37Q10.16 4.10 10.21 3.77L10.21 3.77L10.21 3.77Q10.25 3.44 10.26 3.11L10.26 3.11L10.26 3.11Q10.28 2.77 10.26 2.46L10.26 2.46L10.26 2.46Q10.25 2.14 10.19 1.89L10.19 1.89L10.19 1.89Q9.91 0.70 9.04-0.03L9.04-0.03L9.04-0.03Q8.97-0.08 8.81-0.14L8.81-0.14L8.81-0.14Q8.64-0.20 8.45-0.24L8.45-0.24L8.45-0.24Q8.26-0.29 8.07-0.31L8.07-0.31L8.07-0.31Q7.88-0.34 7.78-0.32ZM6.78 0.92L6.78 0.92L6.78 0.92Q7.46 0.91 7.88 1.20L7.88 1.20L7.88 1.20Q8.30 1.50 8.48 2.00L8.48 2.00L8.48 2.00Q8.67 2.51 8.65 3.15L8.65 3.15L8.65 3.15Q8.64 3.79 8.46 4.47L8.46 4.47L8.46 4.47Q8.29 5.14 7.99 5.77L7.99 5.77L7.99 5.77Q7.70 6.40 7.32 6.87L7.32 6.87L7.32 6.87Q6.83 7.50 6.30 7.83L6.30 7.83L6.30 7.83Q5.77 8.16 5.03 8.25L5.03 8.25L5.03 8.25Q4.37 8.33 3.81 8.09L3.81 8.09L3.81 8.09Q3.25 7.85 3.05 7.28L3.05 7.28L3.05 7.28Q2.84 6.69 2.89 6.04L2.89 6.04L2.89 6.04Q2.94 5.39 3.14 4.72L3.14 4.72L3.14 4.72Q3.32 4.05 3.65 3.37L3.65 3.37L3.65 3.37Q3.99 2.70 4.45 2.16L4.45 2.16L4.45 2.16Q4.91 1.62 5.50 1.29L5.50 1.29L5.50 1.29Q6.08 0.95 6.78 0.92ZM9.93 9.28L9.93 9.28L9.93 9.28Q10.00 9.39 10.12 9.40L10.12 9.40L10.12 9.40Q10.23 9.41 10.36 9.44L10.36 9.44L10.36 9.44Q10.50 9.46 10.63 9.49L10.63 9.49L10.63 9.49Q10.75 9.51 10.86 9.49L10.86 9.49L10.86 9.49Q10.96 9.46 11.05 9.36L11.05 9.36L11.05 9.36Q11.13 9.25 11.17 9.03L11.17 9.03L11.17 9.03Q11.38 8.06 11.57 7.11L11.57 7.11L11.57 7.11Q11.76 6.16 11.96 5.19L11.96 5.19L11.96 5.19Q12.19 4.06 12.46 2.93L12.46 2.93L12.46 2.93Q12.73 1.79 12.98 0.64L12.98 0.64L12.98 0.64Q13.02 0.45 12.99 0.24L12.99 0.24L12.99 0.24Q12.88 0.10 12.75 0.11L12.75 0.11L12.75 0.11Q12.61 0.11 12.43 0.11L12.43 0.11L12.43 0.11Q12.22 0.22 12.01 0.28L12.01 0.28L12.01 0.28Q11.73 1.08 11.52 1.88L11.52 1.88L11.52 1.88Q11.31 2.69 11.13 3.49L11.13 3.49L10.84 4.82L10.84 4.82Q10.74 5.24 10.68 5.50L10.68 5.50L10.68 5.50Q10.63 5.75 10.58 5.99L10.58 5.99L10.58 5.99Q10.53 6.22 10.48 6.48L10.48 6.48L10.48 6.48Q10.43 6.73 10.36 7.15L10.36 7.15L10.36 7.15Q10.32 7.36 10.26 7.64L10.26 7.64L10.26 7.64Q10.19 7.92 10.12 8.22L10.12 8.22L10.12 8.22Q10.05 8.51 10.00 8.79L10.00 8.79L10.00 8.79Q9.94 9.07 9.93 9.28ZM17.81 4.28L17.81 4.28L17.81 4.28Q17.53 3.68 16.96 3.50L16.96 3.50L16.96 3.50Q16.39 3.32 15.75 3.47L15.75 3.47L15.75 3.47Q15.11 3.63 14.48 4.07L14.48 4.07L14.48 4.07Q13.86 4.52 13.47 5.18L13.47 5.18L13.47 5.18Q13.48 5.18 13.54 5.25L13.54 5.25L13.54 5.25Q13.61 5.32 13.68 5.40L13.68 5.40L13.68 5.40Q13.76 5.47 13.82 5.54L13.82 5.54L13.82 5.54Q13.89 5.60 13.92 5.60L13.92 5.60L13.92 5.60Q14.14 5.39 14.36 5.19L14.36 5.19L14.36 5.19Q14.59 4.98 14.85 4.83L14.85 4.83L14.85 4.83Q15.09 4.69 15.40 4.61L15.40 4.61L15.40 4.61Q15.71 4.52 15.99 4.53L15.99 4.53L15.99 4.53Q16.27 4.54 16.47 4.67L16.47 4.67L16.47 4.67Q16.67 4.80 16.70 5.11L16.70 5.11L16.70 5.11Q16.72 5.33 16.66 5.57L16.66 5.57L16.66 5.57Q16.60 5.81 16.58 6.03L16.58 6.03L16.58 6.03Q16.24 6.09 15.89 6.09L15.89 6.09L15.89 6.09Q15.55 6.09 15.22 6.15L15.22 6.15L15.22 6.15Q14.88 6.20 14.48 6.34L14.48 6.34L14.48 6.34Q14.07 6.47 13.69 6.68L13.69 6.68L13.69 6.68Q13.31 6.89 13.03 7.18L13.03 7.18L13.03 7.18Q12.75 7.48 12.67 7.85L12.67 7.85L12.63 8.05L12.63 8.05Q12.66 8.05 12.61 8.09L12.61 8.09L12.61 8.09Q12.50 8.71 12.87 9.09L12.87 9.09L12.87 9.09Q13.16 9.41 13.57 9.49L13.57 9.49L13.57 9.49Q13.99 9.58 14.43 9.58L14.43 9.58L14.43 9.58Q14.43 9.56 14.46 9.56L14.46 9.56L14.46 9.56Q14.66 9.56 14.86 9.52L14.86 9.52L14.86 9.52Q15.06 9.48 15.26 9.44L15.26 9.44L15.26 9.44Q15.43 9.39 15.53 9.37L15.53 9.37L15.53 9.37Q15.62 9.34 15.70 9.31L15.70 9.31L15.70 9.31Q15.78 9.28 15.84 9.26L15.84 9.26L15.84 9.26Q15.90 9.24 15.99 9.21L15.99 9.21L15.99 9.21Q15.97 9.38 16.08 9.46L16.08 9.46L16.08 9.46Q16.18 9.53 16.23 9.69L16.23 9.69L16.23 9.69Q16.42 9.69 16.62 9.65L16.62 9.65L16.62 9.65Q16.81 9.62 17.01 9.60L17.01 9.60L17.01 9.60Q17.04 9.41 17.14 9.03L17.14 9.03L17.14 9.03Q17.23 8.65 17.30 8.36L17.30 8.36L17.33 8.34L17.33 8.34Q17.43 7.92 17.58 7.37L17.58 7.37L17.58 7.37Q17.74 6.82 17.84 6.25L17.84 6.25L17.84 6.25Q17.95 5.68 17.96 5.17L17.96 5.17L17.96 5.17Q17.98 4.65 17.81 4.28ZM16.45 6.99L16.45 6.99L16.45 6.99Q16.41 7.22 16.34 7.52L16.34 7.52L16.34 7.52Q16.27 7.81 16.18 8.05L16.18 8.05L16.18 8.05Q16.14 8.16 15.79 8.26L15.79 8.26L15.79 8.26Q15.44 8.36 15.03 8.39L15.03 8.39L15.03 8.39Q14.62 8.41 14.27 8.35L14.27 8.35L14.27 8.35Q13.92 8.29 13.89 8.09L13.89 8.09L13.89 8.09Q13.89 8.02 13.89 7.97L13.89 7.97L13.89 7.97Q13.90 7.92 13.92 7.85L13.92 7.85L13.92 7.85Q13.99 7.66 14.22 7.49L14.22 7.49L14.22 7.49Q14.45 7.32 14.63 7.25L14.63 7.25L14.63 7.25Q14.67 7.22 14.71 7.22L14.71 7.22L14.71 7.22Q14.76 7.21 14.78 7.20L14.78 7.20L14.78 7.20Q15.18 7.07 15.46 7.00L15.46 7.00L15.46 7.00Q15.74 6.93 16.11 6.93L16.11 6.93L16.11 6.93Q16.18 6.96 16.30 6.95L16.30 6.95L16.30 6.95Q16.41 6.94 16.45 6.99ZM23.59 9.20L23.59 9.20L23.59 9.20Q23.77 8.69 23.91 8.15L23.91 8.15L23.91 8.15Q24.05 7.60 24.16 7.04L24.16 7.04L24.16 7.04Q24.26 6.47 24.36 5.92L24.36 5.92L24.36 5.92Q24.46 5.36 24.57 4.83L24.57 4.83L24.57 4.83Q24.61 4.61 24.70 4.23L24.70 4.23L24.70 4.23Q24.79 3.85 24.90 3.40L24.90 3.40L24.90 3.40Q25.00 2.94 25.12 2.44L25.12 2.44L25.12 2.44Q25.23 1.95 25.32 1.51L25.32 1.51L25.32 1.51Q25.41 1.08 25.47 0.74L25.47 0.74L25.47 0.74Q25.52 0.39 25.52 0.22L25.52 0.22L25.52 0.22Q25.52 0.22 25.41 0.21L25.41 0.21L25.41 0.21Q25.30 0.20 25.07 0.21L25.07 0.21L24.51 0.22L24.51 0.22Q24.50 0.38 24.46 0.51L24.46 0.51L24.46 0.51Q24.43 0.64 24.37 0.80L24.37 0.80L24.37 0.80Q24.22 1.25 24.12 1.73L24.12 1.73L24.12 1.73Q24.01 2.21 23.90 2.67L23.90 2.67L23.90 2.67Q23.81 3.00 23.77 3.33L23.77 3.33L23.77 3.33Q23.73 3.65 23.59 3.98L23.59 3.98L23.59 3.98Q23.41 3.91 23.31 3.87L23.31 3.87L23.31 3.87Q23.21 3.84 23.03 3.79L23.03 3.79L23.03 3.79Q22.95 3.77 22.81 3.77L22.81 3.77L22.81 3.77Q22.68 3.77 22.58 3.77L22.58 3.77L22.58 3.77Q21.95 3.77 21.36 4.03L21.36 4.03L21.36 4.03Q20.76 4.28 20.23 4.70L20.23 4.70L20.23 4.70Q19.80 5.05 19.47 5.49L19.47 5.49L19.47 5.49Q19.14 5.92 18.94 6.38L18.94 6.38L18.94 6.38Q18.73 6.85 18.68 7.31L18.68 7.31L18.68 7.31Q18.62 7.77 18.73 8.16L18.73 8.16L18.73 8.16Q18.84 8.55 19.13 8.86L19.13 8.86L19.13 8.86Q19.42 9.16 19.92 9.28L19.92 9.28L19.92 9.28Q20.15 9.34 20.38 9.37L20.38 9.37L20.38 9.37Q20.61 9.39 20.86 9.32L20.86 9.32L20.86 9.32Q20.92 9.31 21.02 9.29L21.02 9.29L21.02 9.29Q21.13 9.27 21.25 9.24L21.25 9.24L21.25 9.24Q21.36 9.21 21.47 9.19L21.47 9.19L21.47 9.19Q21.57 9.17 21.63 9.14L21.63 9.14L21.63 9.14Q21.78 9.09 21.90 9.04L21.90 9.04L21.90 9.04Q22.01 8.99 22.11 8.93L22.11 8.93L22.11 8.93Q22.22 8.88 22.32 8.81L22.32 8.81L22.32 8.81Q22.43 8.74 22.58 8.64L22.58 8.64L22.58 8.64Q22.55 8.92 22.52 9.09L22.52 9.09L22.52 9.09Q22.48 9.27 22.53 9.35L22.53 9.35L22.53 9.35Q22.57 9.42 22.72 9.41L22.72 9.41L22.72 9.41Q22.88 9.39 23.23 9.31L23.23 9.31L23.23 9.31Q23.30 9.28 23.40 9.26L23.40 9.26L23.40 9.26Q23.51 9.24 23.59 9.20ZM23.27 5.07L23.27 5.07L23.27 5.07Q23.28 5.29 23.23 5.61L23.23 5.61L23.23 5.61Q23.18 5.94 23.10 6.28L23.10 6.28L23.10 6.28Q23.02 6.62 22.93 6.93L22.93 6.93L22.93 6.93Q22.83 7.24 22.75 7.42L22.75 7.42L22.75 7.42Q22.65 7.63 22.34 7.77L22.34 7.77L22.34 7.77Q22.04 7.91 21.68 7.98L21.68 7.98L21.68 7.98Q21.32 8.05 21 8.06L21 8.06L21 8.06Q20.68 8.08 20.55 8.05L20.55 8.05L20.55 8.05Q20.17 7.98 20.01 7.64L20.01 7.64L20.01 7.64Q19.84 7.29 19.99 6.80L19.99 6.80L19.99 6.80Q20.10 6.40 20.37 6.06L20.37 6.06L20.37 6.06Q20.64 5.71 20.99 5.46L20.99 5.46L20.99 5.46Q21.34 5.21 21.74 5.07L21.74 5.07L21.74 5.07Q22.15 4.93 22.54 4.90L22.54 4.90L22.54 4.90Q22.75 4.89 22.93 4.91L22.93 4.91L22.93 4.91Q23.11 4.94 23.27 5.07ZM30.23 8.95L30.23 8.95L30.23 8.95Q30.31 8.89 30.45 8.79L30.45 8.79L30.45 8.79Q30.59 8.68 30.63 8.60L30.63 8.60L30.63 8.60Q30.62 8.57 30.56 8.42L30.56 8.42L30.56 8.42Q30.51 8.27 30.44 8.11L30.44 8.11L30.44 8.11Q30.37 7.95 30.30 7.83L30.30 7.83L30.30 7.83Q30.23 7.70 30.18 7.71L30.18 7.71L30.18 7.71Q29.81 8.04 29.55 8.23L29.55 8.23L29.55 8.23Q29.30 8.41 29.09 8.52L29.09 8.52L29.09 8.52Q28.88 8.62 28.70 8.67L28.70 8.67L28.70 8.67Q28.52 8.71 28.29 8.74L28.29 8.74L28.29 8.74Q28.01 8.74 27.69 8.69L27.69 8.69L27.69 8.69Q27.37 8.64 27.10 8.51L27.10 8.51L27.10 8.51Q26.82 8.39 26.65 8.16L26.65 8.16L26.65 8.16Q26.47 7.94 26.50 7.57L26.50 7.57L26.50 7.57Q26.50 7.41 26.57 7.27L26.57 7.27L26.67 7.21L26.67 7.21Q27.23 7.20 27.78 7.18L27.78 7.18L27.78 7.18Q28.34 7.15 28.92 7.10L28.92 7.10L28.92 7.10Q29.02 7.08 29.27 7.06L29.27 7.06L29.27 7.06Q29.51 7.04 29.77 7.00L29.77 7.00L29.77 7.00Q30.03 6.96 30.25 6.88L30.25 6.88L30.25 6.88Q30.48 6.80 30.55 6.69L30.55 6.69L30.55 6.69Q30.62 6.55 30.69 6.41L30.69 6.41L30.69 6.41Q30.76 6.27 30.83 6.12L30.83 6.12L30.83 6.12Q30.90 5.98 30.91 5.81L30.91 5.81L30.91 5.81Q30.93 5.64 30.95 5.50L30.95 5.50L30.95 5.50Q31.04 4.96 30.84 4.49L30.84 4.49L30.84 4.49Q30.60 3.92 30.09 3.70L30.09 3.70L30.09 3.70Q29.58 3.49 28.97 3.55L28.97 3.55L28.97 3.55Q28.36 3.61 27.73 3.93L27.73 3.93L27.73 3.93Q27.09 4.24 26.61 4.72L26.61 4.72L26.61 4.72Q26.12 5.19 25.80 5.74L25.80 5.74L25.80 5.74Q25.48 6.29 25.35 6.90L25.35 6.90L25.35 6.90Q25.12 8.04 25.45 8.72L25.45 8.72L25.45 8.72Q25.79 9.41 26.47 9.68L26.47 9.68L26.47 9.68Q27.15 9.95 28.04 9.84L28.04 9.84L28.04 9.84Q28.94 9.72 29.82 9.24L29.82 9.24L29.82 9.24Q29.89 9.20 30.02 9.10L30.02 9.10L30.02 9.10Q30.16 9.00 30.23 8.95ZM29.74 6.12L29.74 6.12L29.74 6.12Q29.69 6.13 29.48 6.15L29.48 6.15L29.48 6.15Q29.26 6.17 28.96 6.19L28.96 6.19L28.96 6.19Q28.66 6.20 28.32 6.22L28.32 6.22L28.32 6.22Q27.99 6.24 27.69 6.26L27.69 6.26L27.69 6.26Q27.40 6.27 27.20 6.28L27.20 6.28L27.20 6.28Q26.99 6.29 26.98 6.27L26.98 6.27L26.98 6.27Q26.87 6.24 26.82 6.16L26.82 6.16L26.82 6.16Q26.99 5.61 27.43 5.21L27.43 5.21L27.43 5.21Q27.87 4.80 28.36 4.61L28.36 4.61L28.36 4.61Q28.85 4.42 29.29 4.51L29.29 4.51L29.29 4.51Q29.72 4.59 29.89 5.04L29.89 5.04L29.89 5.04Q29.96 5.19 29.96 5.45L29.96 5.45L29.96 5.45Q29.96 5.68 29.89 5.87L29.89 5.87L29.89 5.87Q29.88 5.94 29.84 6.01L29.84 6.01L29.84 6.01Q29.81 6.08 29.74 6.12ZM36.96 8.95L36.96 8.95L36.96 8.95Q37.04 8.89 37.18 8.79L37.18 8.79L37.18 8.79Q37.32 8.68 37.37 8.60L37.37 8.60L37.37 8.60Q37.35 8.57 37.30 8.42L37.30 8.42L37.30 8.42Q37.24 8.27 37.17 8.11L37.17 8.11L37.17 8.11Q37.10 7.95 37.03 7.83L37.03 7.83L37.03 7.83Q36.96 7.70 36.92 7.71L36.92 7.71L36.92 7.71Q36.54 8.04 36.29 8.23L36.29 8.23L36.29 8.23Q36.04 8.41 35.83 8.52L35.83 8.52L35.83 8.52Q35.62 8.62 35.43 8.67L35.43 8.67L35.43 8.67Q35.25 8.71 35.03 8.74L35.03 8.74L35.03 8.74Q34.75 8.74 34.43 8.69L34.43 8.69L34.43 8.69Q34.10 8.64 33.83 8.51L33.83 8.51L33.83 8.51Q33.56 8.39 33.38 8.16L33.38 8.16L33.38 8.16Q33.21 7.94 33.24 7.57L33.24 7.57L33.24 7.57Q33.24 7.41 33.31 7.27L33.31 7.27L33.40 7.21L33.40 7.21Q33.96 7.20 34.52 7.18L34.52 7.18L34.52 7.18Q35.07 7.15 35.66 7.10L35.66 7.10L35.66 7.10Q35.76 7.08 36.00 7.06L36.00 7.06L36.00 7.06Q36.25 7.04 36.50 7.00L36.50 7.00L36.50 7.00Q36.76 6.96 36.99 6.88L36.99 6.88L36.99 6.88Q37.21 6.80 37.28 6.69L37.28 6.69L37.28 6.69Q37.35 6.55 37.42 6.41L37.42 6.41L37.42 6.41Q37.49 6.27 37.56 6.12L37.56 6.12L37.56 6.12Q37.63 5.98 37.65 5.81L37.65 5.81L37.65 5.81Q37.66 5.64 37.69 5.50L37.69 5.50L37.69 5.50Q37.77 4.96 37.58 4.49L37.58 4.49L37.58 4.49Q37.34 3.92 36.83 3.70L36.83 3.70L36.83 3.70Q36.32 3.49 35.71 3.55L35.71 3.55L35.71 3.55Q35.10 3.61 34.46 3.93L34.46 3.93L34.46 3.93Q33.82 4.24 33.35 4.72L33.35 4.72L33.35 4.72Q32.86 5.19 32.54 5.74L32.54 5.74L32.54 5.74Q32.21 6.29 32.09 6.90L32.09 6.90L32.09 6.90Q31.85 8.04 32.19 8.72L32.19 8.72L32.19 8.72Q32.52 9.41 33.20 9.68L33.20 9.68L33.20 9.68Q33.88 9.95 34.78 9.84L34.78 9.84L34.78 9.84Q35.67 9.72 36.55 9.24L36.55 9.24L36.55 9.24Q36.62 9.20 36.76 9.10L36.76 9.10L36.76 9.10Q36.89 9.00 36.96 8.95ZM36.47 6.12L36.47 6.12L36.47 6.12Q36.43 6.13 36.21 6.15L36.21 6.15L36.21 6.15Q35.99 6.17 35.69 6.19L35.69 6.19L35.69 6.19Q35.39 6.20 35.06 6.22L35.06 6.22L35.06 6.22Q34.72 6.24 34.43 6.26L34.43 6.26L34.43 6.26Q34.13 6.27 33.93 6.28L33.93 6.28L33.93 6.28Q33.73 6.29 33.71 6.27L33.71 6.27L33.71 6.27Q33.60 6.24 33.56 6.16L33.56 6.16L33.56 6.16Q33.73 5.61 34.17 5.21L34.17 5.21L34.17 5.21Q34.61 4.80 35.10 4.61L35.10 4.61L35.10 4.61Q35.59 4.42 36.02 4.51L36.02 4.51L36.02 4.51Q36.46 4.59 36.62 5.04L36.62 5.04L36.62 5.04Q36.69 5.19 36.69 5.45L36.69 5.45L36.69 5.45Q36.69 5.68 36.62 5.87L36.62 5.87L36.62 5.87Q36.61 5.94 36.57 6.01L36.57 6.01L36.57 6.01Q36.54 6.08 36.47 6.12Z"></path></g><!----><!----></svg>